<mxfile host="app.diagrams.net" modified="2023-12-08T20:41:02.953Z" agent="Mozilla/5.0 (X11; Linux x86_64; rv:120.0) Gecko/20100101 Firefox/120.0" version="22.1.7" etag="hw3IUgfaNBywpgZcrdU6" type="github">
  <diagram name="Page-1" id="A67hW_gWlNYCxX-ljjLC">
    <mxGraphModel>
      <root>
        <mxCell id="0" />
        <mxCell id="1" parent="0" />
      </root>
    </mxGraphModel>
  </diagram>
</mxfile>
